# This file uses meters as units for non-parametric coordinates.

mtllib axe.mtl
g default
v 228.698822 -0.000004 50.000000
v 328.698822 -0.000004 50.000000
v 228.698822 99.999985 50.000000
v 328.698822 99.999985 50.000000
v 228.698822 99.999985 -50.000000
v 328.698822 99.999985 -50.000000
v 228.698822 -0.000004 -50.000000
v 328.698822 -0.000004 -50.000000
v 143.374756 234.719040 0.000500
v 414.022888 234.719040 0.000500
v 414.022888 234.719040 -0.000500
v 143.374756 234.719040 -0.000500
v 228.698822 22.415279 -27.584713
v 228.698822 22.415279 27.584713
v 228.698822 77.584702 27.584713
v 228.698822 77.584702 -27.584713
v -184.759094 22.415279 -27.584713
v -184.759094 22.415279 27.584713
v -184.759094 77.584702 27.584713
v -184.759094 77.584702 -27.584713
v -414.022888 36.323189 -5.075649
v -414.022888 38.064140 -8.492455
v -414.022888 40.775734 -11.204046
v -414.022888 44.192539 -12.944995
v -414.022888 47.980095 -13.544885
v -414.022888 51.767651 -12.944994
v -414.022888 55.184456 -11.204044
v -414.022888 57.896046 -8.492452
v -414.022888 59.636993 -5.075648
v -414.022888 60.236885 -1.288091
v -414.022888 59.636993 2.499465
v -414.022888 57.896046 5.916269
v -414.022888 55.184456 8.627859
v -414.022888 51.767651 10.368808
v -414.022888 47.980095 10.968698
v -414.022888 44.192539 10.368807
v -414.022888 40.775738 8.627858
v -414.022888 38.064144 5.916268
v -414.022888 36.323196 2.499465
v -414.022888 35.723309 -1.288091
v -167.120758 36.323189 -5.075649
v -167.120758 38.064140 -8.492455
v -167.120758 40.775734 -11.204046
v -167.120758 44.192539 -12.944995
v -167.120758 47.980095 -13.544885
v -167.120758 51.767651 -12.944994
v -167.120758 55.184456 -11.204044
v -167.120758 57.896046 -8.492452
v -167.120758 59.636993 -5.075648
v -167.120758 60.236885 -1.288091
v -167.120758 59.636993 2.499465
v -167.120758 57.896046 5.916269
v -167.120758 55.184456 8.627859
v -167.120758 51.767651 10.368808
v -167.120758 47.980095 10.968698
v -167.120758 44.192539 10.368807
v -167.120758 40.775738 8.627858
v -167.120758 38.064144 5.916268
v -167.120758 36.323196 2.499465
v -167.120758 35.723309 -1.288091
v -414.022888 47.980095 -1.288091
v -167.120758 47.980095 -1.288091
vt 0.320609 0.613313
vt 0.467554 0.613313
vt 0.467554 0.760257
vt 0.320609 0.760257
vt 0.394082 0.958219
vt 0.394081 0.958219
vt 0.001880 0.845093
vt 0.001880 0.764025
vt 0.082949 0.764025
vt 0.082949 0.845093
vt 0.167874 0.613313
vt 0.314818 0.613313
vt 0.281880 0.646251
vt 0.200812 0.646251
vt 0.314818 0.760257
vt 0.281880 0.727319
vt 0.167874 0.760257
vt 0.200812 0.727319
vt 0.241347 0.958219
vt 0.241345 0.958219
vt 0.093808 0.792622
vt 0.091250 0.787601
vt 0.108379 0.782035
vt 0.090368 0.782035
vt 0.097793 0.796606
vt 0.091250 0.776470
vt 0.102813 0.799165
vt 0.093808 0.771449
vt 0.108379 0.800046
vt 0.097793 0.767464
vt 0.113945 0.799165
vt 0.102813 0.764906
vt 0.118965 0.796606
vt 0.108379 0.764025
vt 0.122950 0.792622
vt 0.113945 0.764906
vt 0.125508 0.787601
vt 0.118965 0.767464
vt 0.126390 0.782035
vt 0.122950 0.771449
vt 0.125508 0.776470
vt 0.133562 0.974432
vt 0.136120 0.969411
vt 0.150691 0.979998
vt 0.140105 0.965427
vt 0.132681 0.979998
vt 0.145126 0.962868
vt 0.133562 0.985563
vt 0.150691 0.961987
vt 0.136120 0.990584
vt 0.156257 0.962868
vt 0.140105 0.994568
vt 0.161278 0.965427
vt 0.145126 0.997127
vt 0.165262 0.969411
vt 0.150691 0.998008
vt 0.167820 0.974432
vt 0.156257 0.997127
vt 0.168702 0.979998
vt 0.161278 0.994568
vt 0.167820 0.985563
vt 0.165262 0.990584
vt 0.706657 0.399694
vt 0.706657 0.001992
vt 0.706658 0.001992
vt 0.706658 0.399694
vt 0.015138 0.760257
vt 0.015138 0.613313
vt 0.162083 0.613313
vt 0.162083 0.760257
vt 0.001880 0.001992
vt 0.082949 0.001992
vt 0.082949 0.609545
vt 0.001880 0.609545
vt 0.178672 0.001992
vt 0.259741 0.001992
vt 0.259741 0.609545
vt 0.178672 0.609545
vt 0.571212 0.766271
vt 0.566191 0.766271
vt 0.566191 0.403462
vt 0.571212 0.403462
vt 0.562207 0.766271
vt 0.562207 0.403462
vt 0.576778 0.766271
vt 0.576778 0.403462
vt 0.582343 0.766271
vt 0.582343 0.403462
vt 0.587364 0.766271
vt 0.587364 0.403462
vt 0.591348 0.766271
vt 0.591348 0.403462
vt 0.525467 0.766271
vt 0.520446 0.766271
vt 0.520446 0.403462
vt 0.525467 0.403462
vt 0.514880 0.766271
vt 0.514880 0.403462
vt 0.529451 0.766271
vt 0.529451 0.403462
vt 0.509315 0.766271
vt 0.509315 0.403462
vt 0.504294 0.766271
vt 0.504294 0.403462
vt 0.500309 0.766271
vt 0.500309 0.403462
vt 0.355280 0.274315
vt 0.355280 0.127371
vt 0.502225 0.127371
vt 0.502225 0.274315
vt 0.700187 0.001992
vt 0.700187 0.399694
vt 0.795102 0.675785
vt 0.795102 0.528841
vt 0.942046 0.528841
vt 0.942046 0.675785
vt 0.597140 0.801164
vt 0.597140 0.403462
vt 0.090368 0.001992
vt 0.171437 0.001992
vt 0.171437 0.609545
vt 0.090368 0.609545
vt 0.266976 0.001992
vt 0.348045 0.001992
vt 0.348045 0.609545
vt 0.266976 0.609545
vt 0.556415 0.766271
vt 0.551394 0.766271
vt 0.551394 0.403462
vt 0.556415 0.403462
vt 0.545829 0.766271
vt 0.545829 0.403462
vt 0.540263 0.766271
vt 0.540263 0.403462
vt 0.535242 0.766271
vt 0.535242 0.403462
vt 0.494518 0.766271
vt 0.489497 0.766271
vt 0.489497 0.403462
vt 0.494518 0.403462
vt 0.483931 0.766271
vt 0.483931 0.403462
vt 0.478366 0.766271
vt 0.478366 0.403462
vt 0.473345 0.766271
vt 0.473345 0.403462
vn 0.000000 0.000000 1.000000
vn 0.000000 0.000000 1.000000
vn 0.000000 0.274786 0.961506
vn 0.000000 0.274786 0.961506
vn 0.000000 1.000000 0.000000
vn 0.000000 1.000000 0.000000
vn 0.000000 1.000000 0.000000
vn 0.000000 1.000000 0.000000
vn 0.000000 0.274786 -0.961506
vn 0.000000 0.274786 -0.961506
vn 0.000000 0.000000 -1.000000
vn 0.000000 0.000000 -1.000000
vn 0.000000 -1.000000 0.000000
vn 0.000000 -1.000000 0.000000
vn 0.000000 -1.000000 0.000000
vn 0.000000 -1.000000 0.000000
vn 1.000000 0.000000 0.000000
vn 1.000000 0.000000 0.000000
vn 0.976033 -0.217621 0.000000
vn 0.976033 -0.217621 0.000000
vn -1.000000 0.000000 0.000000
vn -1.000000 0.000000 0.000000
vn -1.000000 0.000000 0.000000
vn -1.000000 0.000000 0.000000
vn 0.000000 0.274786 0.961506
vn 0.000000 0.274786 0.961506
vn 0.000000 0.347948 0.937514
vn 0.000000 0.347948 0.937514
vn 0.976033 -0.217621 0.000000
vn 0.976033 -0.217621 0.000000
vn 0.844814 -0.535061 0.000000
vn 0.844814 -0.535061 0.000000
vn 0.000000 0.274786 -0.961506
vn 0.000000 0.274786 -0.961506
vn 0.000000 0.347948 -0.937514
vn 0.000000 0.347948 -0.937514
vn -0.844813 -0.535061 0.000000
vn -0.844813 -0.535061 0.000000
vn -0.844813 -0.535061 0.000000
vn -0.844813 -0.535061 0.000000
vn -1.000000 0.000000 0.000000
vn -1.000000 0.000000 0.000000
vn -1.000000 0.000000 0.000000
vn -1.000000 0.000000 0.000000
vn -1.000000 0.000000 0.000000
vn -1.000000 0.000000 0.000000
vn -1.000000 0.000000 0.000000
vn -1.000000 0.000000 0.000000
vn -1.000000 0.000000 0.000000
vn -1.000000 0.000000 0.000000
vn -1.000000 0.000000 0.000000
vn -1.000000 0.000000 0.000000
vn -1.000000 0.000000 0.000000
vn -1.000000 0.000000 0.000000
vn -1.000000 0.000000 0.000000
vn -1.000000 0.000000 0.000000
vn 0.000000 -1.000000 0.000000
vn 0.000000 -1.000000 0.000000
vn 0.000000 -1.000000 0.000000
vn 0.000000 -1.000000 0.000000
vn 0.000000 0.000000 1.000000
vn 0.000000 0.000000 1.000000
vn 0.000000 0.000000 1.000000
vn 0.000000 0.000000 1.000000
vn 0.000000 1.000000 0.000000
vn 0.000000 1.000000 0.000000
vn 0.000000 1.000000 0.000000
vn 0.000000 1.000000 0.000000
vn 0.000000 0.000000 -1.000000
vn 0.000000 0.000000 -1.000000
vn 0.000000 0.000000 -1.000000
vn 0.000000 0.000000 -1.000000
vn 0.000000 -0.951057 -0.309016
vn 0.000000 -0.809017 -0.587786
vn 0.000000 -0.809017 -0.587786
vn 0.000000 -0.951057 -0.309016
vn 0.000000 -0.809017 -0.587786
vn 0.000000 -0.587785 -0.809017
vn 0.000000 -0.587785 -0.809017
vn 0.000000 -0.809017 -0.587786
vn 0.000000 -0.587785 -0.809017
vn 0.000000 -0.309017 -0.951057
vn 0.000000 -0.309017 -0.951057
vn 0.000000 -0.587785 -0.809017
vn 0.000000 -0.309017 -0.951057
vn 0.000000 0.000000 -1.000000
vn 0.000000 0.000000 -1.000000
vn 0.000000 -0.309017 -0.951057
vn 0.000000 0.000000 -1.000000
vn 0.000000 0.309017 -0.951057
vn 0.000000 0.309017 -0.951057
vn 0.000000 0.000000 -1.000000
vn 0.000000 0.309017 -0.951057
vn 0.000000 0.587785 -0.809017
vn 0.000000 0.587785 -0.809017
vn 0.000000 0.309017 -0.951057
vn 0.000000 0.587785 -0.809017
vn 0.000000 0.809017 -0.587785
vn 0.000000 0.809017 -0.587785
vn 0.000000 0.587785 -0.809017
vn 0.000000 0.809017 -0.587785
vn 0.000000 0.951057 -0.309017
vn 0.000000 0.951057 -0.309017
vn 0.000000 0.809017 -0.587785
vn 0.000000 0.951057 -0.309017
vn 0.000000 1.000000 0.000000
vn 0.000000 1.000000 0.000000
vn 0.000000 0.951057 -0.309017
vn 0.000000 1.000000 0.000000
vn 0.000000 0.951057 0.309017
vn 0.000000 0.951057 0.309017
vn 0.000000 1.000000 0.000000
vn 0.000000 0.951057 0.309017
vn 0.000000 0.809017 0.587785
vn 0.000000 0.809017 0.587785
vn 0.000000 0.951057 0.309017
vn 0.000000 0.809017 0.587785
vn 0.000000 0.587785 0.809017
vn 0.000000 0.587785 0.809017
vn 0.000000 0.809017 0.587785
vn 0.000000 0.587785 0.809017
vn 0.000000 0.309017 0.951057
vn 0.000000 0.309017 0.951057
vn 0.000000 0.587785 0.809017
vn 0.000000 0.309017 0.951057
vn 0.000000 -0.000000 1.000000
vn 0.000000 -0.000000 1.000000
vn 0.000000 0.309017 0.951057
vn 0.000000 -0.000000 1.000000
vn 0.000000 -0.309017 0.951057
vn 0.000000 -0.309017 0.951057
vn 0.000000 -0.000000 1.000000
vn 0.000000 -0.309017 0.951057
vn 0.000000 -0.587785 0.809017
vn 0.000000 -0.587785 0.809017
vn 0.000000 -0.309017 0.951057
vn 0.000000 -0.587785 0.809017
vn 0.000000 -0.809017 0.587785
vn 0.000000 -0.809017 0.587785
vn 0.000000 -0.587785 0.809017
vn 0.000000 -0.809017 0.587785
vn 0.000000 -0.951057 0.309017
vn 0.000000 -0.951057 0.309017
vn 0.000000 -0.809017 0.587785
vn 0.000000 -0.951057 0.309017
vn 0.000000 -1.000000 0.000001
vn 0.000000 -1.000000 0.000001
vn 0.000000 -0.951057 0.309017
vn 0.000000 -1.000000 0.000001
vn 0.000000 -0.951057 -0.309016
vn 0.000000 -0.951057 -0.309016
vn 0.000000 -1.000000 0.000001
vn -1.000000 0.000011 0.000000
vn -1.000000 0.000000 0.000000
vn -1.000000 -0.000001 0.000000
vn -1.000000 0.000011 0.000000
vn -1.000000 0.000011 0.000000
vn -1.000000 -0.000001 0.000000
vn -1.000000 0.000000 0.000000
vn -1.000000 0.000011 0.000000
vn -1.000000 -0.000001 0.000000
vn -1.000000 0.000000 0.000000
vn -1.000000 0.000000 0.000000
vn -1.000000 -0.000001 0.000000
vn -1.000000 0.000000 0.000000
vn -1.000000 0.000000 0.000000
vn -1.000000 -0.000001 0.000000
vn -1.000000 -0.000011 0.000000
vn -1.000000 0.000000 0.000000
vn -1.000000 -0.000001 0.000000
vn -1.000000 -0.000011 0.000000
vn -1.000000 -0.000011 0.000000
vn -1.000000 -0.000001 0.000000
vn -1.000000 0.000000 0.000000
vn -1.000000 -0.000011 0.000000
vn -1.000000 -0.000001 0.000000
vn -1.000000 0.000000 0.000000
vn -1.000000 0.000000 0.000000
vn -1.000000 -0.000001 0.000000
vn -1.000000 0.000000 0.000000
vn -1.000000 0.000000 0.000000
vn -1.000000 -0.000001 0.000000
vn -1.000000 0.000000 0.000000
vn -1.000000 0.000000 0.000000
vn -1.000000 -0.000001 0.000000
vn -1.000000 0.000000 0.000000
vn -1.000000 0.000000 0.000000
vn -1.000000 -0.000001 0.000000
vn -1.000000 0.000000 0.000000
vn -1.000000 0.000000 0.000000
vn -1.000000 -0.000001 0.000000
vn -1.000000 0.000000 0.000000
vn -1.000000 0.000000 0.000000
vn -1.000000 -0.000001 0.000000
vn -1.000000 0.000000 0.000000
vn -1.000000 0.000000 0.000000
vn -1.000000 -0.000001 0.000000
vn -1.000000 -0.000005 0.000000
vn -1.000000 0.000000 0.000000
vn -1.000000 -0.000001 0.000000
vn -1.000000 -0.000005 0.000000
vn -1.000000 -0.000005 0.000000
vn -1.000000 -0.000001 0.000000
vn -1.000000 0.000000 0.000000
vn -1.000000 -0.000005 0.000000
vn -1.000000 -0.000001 0.000000
vn -1.000000 0.000000 0.000000
vn -1.000000 0.000000 0.000000
vn -1.000000 -0.000001 0.000000
vn -1.000000 0.000000 0.000000
vn -1.000000 0.000000 0.000000
vn -1.000000 -0.000001 0.000000
vn 1.000000 0.000000 0.000000
vn 1.000000 -0.000005 0.000000
vn 1.000000 -0.000000 0.000000
vn 1.000000 -0.000005 0.000000
vn 1.000000 -0.000000 0.000000
vn 1.000000 -0.000000 0.000000
vn 1.000000 -0.000000 0.000000
vn 1.000000 0.000005 0.000000
vn 1.000000 -0.000000 0.000000
vn 1.000000 0.000005 0.000000
vn 1.000000 0.000000 0.000000
vn 1.000000 -0.000000 0.000000
vn 1.000000 0.000000 0.000000
vn 1.000000 -0.000005 0.000000
vn 1.000000 -0.000000 0.000000
vn 1.000000 -0.000005 0.000000
vn 1.000000 -0.000000 0.000000
vn 1.000000 -0.000000 0.000000
vn 1.000000 -0.000000 0.000000
vn 1.000000 0.000005 0.000000
vn 1.000000 -0.000000 0.000000
vn 1.000000 0.000005 0.000000
vn 1.000000 0.000000 0.000000
vn 1.000000 -0.000000 0.000000
vn 1.000000 0.000000 0.000000
vn 1.000000 0.000000 0.000000
vn 1.000000 -0.000000 0.000000
vn 1.000000 0.000000 0.000000
vn 1.000000 0.000000 0.000000
vn 1.000000 -0.000000 0.000000
vn 1.000000 0.000000 0.000000
vn 1.000000 -0.000003 0.000000
vn 1.000000 -0.000000 0.000000
vn 1.000000 -0.000003 0.000000
vn 1.000000 -0.000003 0.000000
vn 1.000000 -0.000000 0.000000
vn 1.000000 -0.000003 0.000000
vn 1.000000 0.000000 0.000000
vn 1.000000 -0.000000 0.000000
vn 1.000000 0.000000 0.000000
vn 1.000000 0.000000 0.000000
vn 1.000000 -0.000000 0.000000
vn 1.000000 0.000000 0.000000
vn 1.000000 0.000000 0.000000
vn 1.000000 -0.000000 0.000000
vn 1.000000 0.000000 0.000000
vn 1.000000 0.000005 0.000000
vn 1.000000 -0.000000 0.000000
vn 1.000000 0.000005 0.000000
vn 1.000000 0.000003 0.000000
vn 1.000000 -0.000000 0.000000
vn 1.000000 0.000003 0.000000
vn 1.000000 -0.000003 0.000000
vn 1.000000 -0.000000 0.000000
vn 1.000000 -0.000003 0.000000
vn 1.000000 0.000000 0.000000
vn 1.000000 -0.000000 0.000000
vn 1.000000 0.000000 0.000000
vn 1.000000 0.000000 0.000000
vn 1.000000 -0.000000 0.000000
s off
g pCube5
usemtl pCube5SG
f 1/107/1 2/108/2 4/109/3 3/110/4
f 9/63/5 10/64/6 11/65/7 12/66/8
f 5/113/9 6/114/10 8/115/11 7/116/12
f 7/67/13 8/68/14 2/69/15 1/70/16
f 2/1/17 8/2/18 6/3/19 4/4/20
f 17/7/21 18/8/22 19/9/23 20/10/24
f 3/110/25 4/109/26 10/111/27 9/112/28
f 4/4/29 6/3/30 11/5/31 10/6/32
f 6/114/33 5/113/34 12/117/35 11/118/36
f 5/17/37 3/15/38 9/19/39 12/20/40
f 7/11/41 1/12/42 14/13/43 13/14/44
f 1/12/45 3/15/46 15/16/47 14/13/48
f 3/15/49 5/17/50 16/18/51 15/16/52
f 5/17/53 7/11/54 13/14/55 16/18/56
f 13/71/57 14/72/58 18/73/59 17/74/60
f 14/119/61 15/120/62 19/121/63 18/122/64
f 15/75/65 16/76/66 20/77/67 19/78/68
f 16/123/69 13/124/70 17/125/71 20/126/72
f 21/79/73 22/80/74 42/81/75 41/82/76
f 22/80/77 23/83/78 43/84/79 42/81/80
f 23/127/81 24/128/82 44/129/83 43/130/84
f 24/128/85 25/131/86 45/132/87 44/129/88
f 25/131/89 26/133/90 46/134/91 45/132/92
f 26/133/93 27/135/94 47/136/95 46/134/96
f 27/99/97 28/93/98 48/96/99 47/100/100
f 28/93/101 29/94/102 49/95/103 48/96/104
f 29/94/105 30/97/106 50/98/107 49/95/108
f 30/97/109 31/101/110 51/102/111 50/98/112
f 31/101/113 32/103/114 52/104/115 51/102/116
f 32/103/117 33/105/118 53/106/119 52/104/120
f 33/137/121 34/138/122 54/139/123 53/140/124
f 34/138/125 35/141/126 55/142/127 54/139/128
f 35/141/129 36/143/130 56/144/131 55/142/132
f 36/143/133 37/145/134 57/146/135 56/144/136
f 37/91/137 38/89/138 58/90/139 57/92/140
f 38/89/141 39/87/142 59/88/143 58/90/144
f 39/87/145 40/85/146 60/86/147 59/88/148
f 40/85/149 21/79/150 41/82/151 60/86/152
f 22/21/153 21/22/154 61/23/155
f 23/25/156 22/21/157 61/23/158
f 24/27/159 23/25/160 61/23/161
f 25/29/162 24/27/163 61/23/164
f 26/31/165 25/29/166 61/23/167
f 27/33/168 26/31/169 61/23/170
f 28/35/171 27/33/172 61/23/173
f 29/37/174 28/35/175 61/23/176
f 30/39/177 29/37/178 61/23/179
f 31/41/180 30/39/181 61/23/182
f 32/40/183 31/41/184 61/23/185
f 33/38/186 32/40/187 61/23/188
f 34/36/189 33/38/190 61/23/191
f 35/34/192 34/36/193 61/23/194
f 36/32/195 35/34/196 61/23/197
f 37/30/198 36/32/199 61/23/200
f 38/28/201 37/30/202 61/23/203
f 39/26/204 38/28/205 61/23/206
f 40/24/207 39/26/208 61/23/209
f 21/22/210 40/24/211 61/23/212
f 41/42/213 42/43/214 62/44/215
f 42/43/216 43/45/217 62/44/218
f 43/45/219 44/47/220 62/44/221
f 44/47/222 45/49/223 62/44/224
f 45/49/225 46/51/226 62/44/227
f 46/51/228 47/53/229 62/44/230
f 47/53/231 48/55/232 62/44/233
f 48/55/234 49/57/235 62/44/236
f 49/57/237 50/59/238 62/44/239
f 50/59/240 51/61/241 62/44/242
f 51/61/243 52/62/244 62/44/245
f 52/62/246 53/60/247 62/44/248
f 53/60/249 54/58/250 62/44/251
f 54/58/252 55/56/253 62/44/254
f 55/56/255 56/54/256 62/44/257
f 56/54/258 57/52/259 62/44/260
f 57/52/261 58/50/262 62/44/263
f 58/50/264 59/48/265 62/44/266
f 59/48/267 60/46/268 62/44/269
f 60/46/270 41/42/271 62/44/272
